<svg width="36" height="36" viewBox="0 0 36 36" fill="none" xmlns="http://www.w3.org/2000/svg">
<path d="M8.25 10.6875C8.66421 10.6875 9 10.3517 9 9.9375C9 9.52329 8.66421 9.1875 8.25 9.1875C7.83579 9.1875 7.5 9.52329 7.5 9.9375C7.5 10.3517 7.83579 10.6875 8.25 10.6875Z" />
<path d="M27.75 10.6875C28.1642 10.6875 28.5 10.3517 28.5 9.9375C28.5 9.52329 28.1642 9.1875 27.75 9.1875C27.3358 9.1875 27 9.52329 27 9.9375C27 10.3517 27.3358 10.6875 27.75 10.6875Z" />
<path d="M14.2365 4.5H9.93C6.936 4.5 4.5 6.936 4.5 9.945C4.5 12.939 6.936 15.375 9.93 15.375H10.815C10.956 15.375 11.1075 15.3405 11.25 15.33V28.56C11.25 30.1815 12.5685 31.5 14.19 31.5C15.8115 31.5 17.13 30.1815 17.13 28.56V9.06V7.3935C17.13 5.7975 15.8325 4.5 14.2365 4.5ZM9.93 13.875C7.7625 13.875 6 12.111 6 9.93C6 7.764 7.7625 6 9.93 6H14.2365C15.0045 6 15.63 6.6255 15.63 7.3935V9.06C15.63 9.345 15.606 9.624 15.558 9.897C15.2295 11.799 13.794 13.335 11.844 13.77C11.499 13.8375 11.145 13.875 10.815 13.875H9.93ZM15.63 13.1625V28.56C15.63 29.3535 14.9835 30 14.19 30C13.3965 30 12.75 29.3535 12.75 28.56V15.078C12.8445 15.048 12.93 15.003 13.023 14.9685C13.14 14.925 13.254 14.88 13.368 14.8305C13.575 14.739 13.773 14.6355 13.9665 14.5245C14.0595 14.4705 14.1555 14.4225 14.2455 14.3655C14.505 14.199 14.7525 14.016 14.982 13.815C14.9955 13.803 15.0105 13.794 15.024 13.782C15.24 13.5885 15.4425 13.383 15.63 13.1625Z" />
<path d="M26.0691 4.5H21.7626C20.1681 4.5 18.8691 5.7975 18.8691 7.3935V9.06V28.56C18.8691 30.1815 20.1876 31.5 21.8091 31.5C23.4306 31.5 24.7491 30.1815 24.7491 28.56V15.3315C24.8931 15.3405 25.0416 15.375 25.1841 15.375H26.0691C29.0631 15.375 31.4991 12.939 31.4991 9.93C31.4991 6.936 29.0631 4.5 26.0691 4.5ZM23.2491 28.56C23.2491 29.3535 22.6026 30 21.8091 30C21.0156 30 20.3691 29.3535 20.3691 28.56V13.1625C20.7696 13.6335 21.2466 14.0385 21.7761 14.376C21.8466 14.421 21.9216 14.4585 21.9936 14.5005C22.2081 14.6265 22.4301 14.7405 22.6626 14.841C22.7601 14.883 22.8591 14.922 22.9596 14.9595C23.0571 14.997 23.1501 15.0435 23.2491 15.075V28.56ZM26.0691 13.875H25.1841C24.8511 13.875 24.4926 13.839 24.1611 13.773C21.9291 13.278 20.3691 11.34 20.3691 9.06V7.3935C20.3691 6.6255 20.9946 6 21.7626 6H26.0691C28.2366 6 29.9991 7.764 29.9991 9.945C29.9991 12.111 28.2366 13.875 26.0691 13.875Z" />
<path d="M14.1895 22.125C13.7755 22.125 13.4395 22.461 13.4395 22.875V27C13.4395 27.414 13.7755 27.75 14.1895 27.75C14.6035 27.75 14.9395 27.414 14.9395 27V22.875C14.9395 22.461 14.6035 22.125 14.1895 22.125Z" />
<path d="M21.8105 22.125C21.3965 22.125 21.0605 22.461 21.0605 22.875V27C21.0605 27.414 21.3965 27.75 21.8105 27.75C22.2245 27.75 22.5605 27.414 22.5605 27V22.875C22.5605 22.461 22.2245 22.125 21.8105 22.125Z" />
</svg>
