<svg width="36" height="36" viewBox="0 0 36 36" fill="none" xmlns="http://www.w3.org/2000/svg">
<path d="M18 21.282C18.4142 21.282 18.75 20.9462 18.75 20.532C18.75 20.1178 18.4142 19.782 18 19.782C17.5858 19.782 17.25 20.1178 17.25 20.532C17.25 20.9462 17.5858 21.282 18 21.282Z" />
<path d="M25.1773 18.9525C25.3243 19.0995 25.5163 19.1715 25.7083 19.1715C25.9003 19.1715 26.0923 19.098 26.2393 18.9525C28.2553 16.938 28.2553 13.659 26.2393 11.6415C25.9468 11.349 25.4713 11.349 25.1788 11.6415C24.8863 11.934 24.8863 12.4095 25.1788 12.702C26.6098 14.133 26.6098 16.461 25.1788 17.8905C24.8833 18.186 24.8833 18.66 25.1773 18.9525Z" />
<path d="M27.8073 20.1899C27.5148 20.4824 27.5148 20.9579 27.8073 21.2504C27.9543 21.3974 28.1463 21.4694 28.3383 21.4694C28.5303 21.4694 28.7223 21.3959 28.8693 21.2504C32.1513 17.9684 32.1513 12.6269 28.8693 9.3434C28.5768 9.0509 28.1013 9.0509 27.8088 9.3434C27.5163 9.6359 27.5163 10.1114 27.8088 10.4039C30.5043 13.1039 30.5043 17.4929 27.8073 20.1899Z" />
<path d="M9.59189 18.9525C9.73889 19.0995 9.93089 19.1715 10.1229 19.1715C10.3149 19.1715 10.5069 19.098 10.6539 18.9525C10.9464 18.66 10.9464 18.1845 10.6539 17.892C9.22289 16.461 9.22289 14.133 10.6539 12.7035C10.9464 12.411 10.9464 11.9355 10.6539 11.643C10.3614 11.3505 9.88589 11.3505 9.59339 11.643C7.57589 13.6575 7.57589 16.938 9.59189 18.9525Z" />
<path d="M7.49295 21.4711C7.68495 21.4711 7.87695 21.3976 8.02395 21.2521C8.31645 20.9596 8.31645 20.4841 8.02395 20.1916C5.32695 17.4946 5.32695 13.1041 8.02395 10.4071C8.31645 10.1146 8.31645 9.63907 8.02395 9.34657C7.73145 9.05407 7.25595 9.05407 6.96345 9.34657C3.68145 12.6286 3.68145 17.9701 6.96345 21.2536C7.10895 21.3976 7.30095 21.4711 7.49295 21.4711Z" />
<path d="M15.4695 26.532C13.143 26.532 11.25 28.425 11.25 30.7515C11.25 31.164 11.586 31.5 12 31.5H24C24.414 31.5 24.75 31.164 24.75 30.75C24.75 28.4235 22.857 26.5305 20.5305 26.5305H20.3655L20.103 23.583C22.2405 22.779 23.7195 20.817 23.8995 18.525C23.904 18.4905 23.9205 18.459 23.9205 18.4215C23.9205 18.4065 23.913 18.3945 23.9115 18.3795C23.9175 18.2715 23.9385 18.168 23.9385 18.06V10.44C23.9385 8.8665 23.3235 7.374 22.2 6.2295C21.066 5.115 19.5735 4.5 18 4.5C14.724 4.5 12.06 7.164 12.06 10.44V18.06C12.06 18.147 12.078 18.2295 12.081 18.3165C12.075 18.3525 12.06 18.3855 12.06 18.423C12.06 18.5145 12.0825 18.6 12.1125 18.681C12.348 20.9115 13.8135 22.806 15.8955 23.5845L15.633 26.5305H15.4695V26.532ZM23.145 30H12.855C13.1805 28.8645 14.229 28.0305 15.468 28.0305H16.3185H19.6785H20.529C21.771 28.032 22.818 28.8645 23.145 30ZM18 6C19.179 6 20.2965 6.462 21.141 7.29C21.9795 8.142 22.44 9.261 22.44 10.44V17.673H13.56V10.44C13.56 7.992 15.552 6 18 6ZM13.7175 19.173H22.284C21.8865 20.7015 20.7 21.9405 19.101 22.3485C18.3975 22.5495 17.6265 22.554 16.8825 22.344C15.297 21.939 14.115 20.7015 13.7175 19.173ZM17.367 23.9745C17.4555 23.985 17.5455 23.9685 17.6355 23.9745C17.757 23.9835 17.877 24 18 24C18.1245 24 18.2445 23.9835 18.3675 23.9745C18.456 23.9685 18.5445 23.985 18.633 23.9745L18.861 26.5305H17.1405L17.367 23.9745Z" />
</svg>
