<svg width="80" height="80" viewBox="0 0 80 80" fill="none" xmlns="http://www.w3.org/2000/svg">
<g clip-path="url(#clip0_418_2285)">
<g filter="url(#filter0_d_418_2285)">
<path d="M76.25 70C76.25 75.5225 71.7725 80 66.25 80H22.5C16.9775 80 12.5 75.5225 12.5 70V15C12.5 9.4775 16.9775 5 22.5 5H66.25C71.7725 5 76.25 9.4775 76.25 15V70Z" fill="#C1A8F3"/>
<path d="M59.375 78.75H15.625C9.0775 78.75 3.75 73.4225 3.75 66.875V11.875C3.75 5.3275 9.0775 0 15.625 0H59.375C65.9225 0 71.25 5.3275 71.25 11.875V66.875C71.25 73.4225 65.9225 78.75 59.375 78.75ZM15.625 3.75C11.145 3.75 7.5 7.395 7.5 11.875V66.875C7.5 71.355 11.145 75 15.625 75H59.375C63.855 75 67.5 71.355 67.5 66.875V11.875C67.5 7.395 63.855 3.75 59.375 3.75H15.625Z" fill="#1C1C1C"/>
<path d="M61.25 17.5H16.25C15.215 17.5 14.375 16.66 14.375 15.625C14.375 14.59 15.215 13.75 16.25 13.75H61.25C62.285 13.75 63.125 14.59 63.125 15.625C63.125 16.66 62.285 17.5 61.25 17.5Z" fill="#1C1C1C"/>
<path d="M61.25 27.5H16.25C15.215 27.5 14.375 26.66 14.375 25.625C14.375 24.59 15.215 23.75 16.25 23.75H61.25C62.285 23.75 63.125 24.59 63.125 25.625C63.125 26.66 62.285 27.5 61.25 27.5Z" fill="#1C1C1C"/>
<path d="M49.3821 59.1924C49.3821 61.3324 47.6471 63.0674 45.5059 63.0674C43.3659 63.0674 41.6309 61.3324 41.6309 59.1924C41.6309 57.0524 43.3659 55.3174 45.5059 55.3174C47.6471 55.3174 49.3821 57.0524 49.3821 59.1924Z" fill="#C1A8F3"/>
<path d="M34.6673 59.1924C34.6673 61.3324 32.9323 63.0674 30.7923 63.0674C28.651 63.0674 26.916 61.3324 26.916 59.1924C26.916 57.0524 28.651 55.3174 30.7923 55.3174C32.9323 55.3174 34.6673 57.0524 34.6673 59.1924Z" fill="#C1A8F3"/>
<path d="M43.0059 64.9424C39.8346 64.9424 37.2559 62.3636 37.2559 59.1924C37.2559 56.0211 39.8346 53.4424 43.0059 53.4424C46.1771 53.4424 48.7571 56.0211 48.7571 59.1924C48.7571 62.3636 46.1771 64.9424 43.0059 64.9424ZM43.0059 57.1924C41.9021 57.1924 41.0059 58.0899 41.0059 59.1924C41.0059 60.2949 41.9021 61.1924 43.0059 61.1924C44.1096 61.1924 45.0071 60.2949 45.0071 59.1924C45.0071 58.0899 44.1096 57.1924 43.0059 57.1924Z" fill="#1C1C1C"/>
<path d="M28.2923 64.9424C25.121 64.9424 22.541 62.3636 22.541 59.1924C22.541 56.0211 25.121 53.4424 28.2923 53.4424C31.4635 53.4424 34.0423 56.0211 34.0423 59.1924C34.0423 62.3636 31.4635 64.9424 28.2923 64.9424ZM28.2923 57.1924C27.1885 57.1924 26.291 58.0899 26.291 59.1924C26.291 60.2949 27.1885 61.1924 28.2923 61.1924C29.396 61.1924 30.2923 60.2949 30.2923 59.1924C30.2923 58.0899 29.396 57.1924 28.2923 57.1924Z" fill="#1C1C1C"/>
<path d="M46.875 59.375C45.84 59.375 45 58.535 45 57.5V42.5H33.75V57.5C33.75 58.535 32.91 59.375 31.875 59.375C30.84 59.375 30 58.535 30 57.5V40.625C30 39.59 30.84 38.75 31.875 38.75H46.875C47.91 38.75 48.75 39.59 48.75 40.625V57.5C48.75 58.535 47.91 59.375 46.875 59.375Z" fill="#1C1C1C"/>
</g>
</g>
<defs>
<filter id="filter0_d_418_2285" x="-0.25" y="0" width="80.5" height="88" filterUnits="userSpaceOnUse" color-interpolation-filters="sRGB">
<feFlood flood-opacity="0" result="BackgroundImageFix"/>
<feColorMatrix in="SourceAlpha" type="matrix" values="0 0 0 0 0 0 0 0 0 0 0 0 0 0 0 0 0 0 127 0" result="hardAlpha"/>
<feOffset dy="4"/>
<feGaussianBlur stdDeviation="2"/>
<feComposite in2="hardAlpha" operator="out"/>
<feColorMatrix type="matrix" values="0 0 0 0 0 0 0 0 0 0 0 0 0 0 0 0 0 0 0.25 0"/>
<feBlend mode="normal" in2="BackgroundImageFix" result="effect1_dropShadow_418_2285"/>
<feBlend mode="normal" in="SourceGraphic" in2="effect1_dropShadow_418_2285" result="shape"/>
</filter>
<clipPath id="clip0_418_2285">
<rect width="80" height="80" fill="white"/>
</clipPath>
</defs>
</svg>
