<svg width="72" height="64" viewBox="0 0 72 64" fill="none" xmlns="http://www.w3.org/2000/svg">
<path d="M0 62.5287C1.00741 58.6815 1.51111 56.586 1.51111 56.242C1.51111 55.5287 1.48388 54.9427 1.42943 54.4841L1.38859 54.2548C1.51111 54.1783 1.7017 54.0764 1.96036 53.949C2.23263 53.8217 2.86567 53.6369 3.85946 53.3949C4.86687 53.1529 5.98318 52.9873 7.20841 52.8981C6.25545 54.6815 5.3025 57 4.34955 59.8535C4.96216 59.8535 5.50671 59.8025 5.98318 59.7006C6.45966 59.586 6.78639 59.4777 6.96336 59.3758L7.22883 59.2038L6.41201 63.121C4.71031 62.828 2.90651 62.6433 1.0006 62.5669L0 62.5287Z" fill="#EDF0F3"/>
<path d="M11.9901 57.9236C11.7179 58.4586 11.5 58.9682 11.3367 59.4522C11.1733 59.9236 11.0236 60.5159 10.8874 61.2293C10.7649 61.9299 10.7036 62.4713 10.7036 62.8535C10.7036 63.2229 10.7036 63.4395 10.7036 63.5032C10.0774 63.2357 9.53288 62.9618 9.07002 62.6815C8.60715 62.4013 8.29404 62.1847 8.13068 62.0318L7.90605 61.8025C7.90605 60.6433 7.98093 59.5669 8.13068 58.5732C8.28043 57.5796 8.43018 56.879 8.57993 56.4713L8.80455 55.8408C10.0298 56.0446 11.1257 56.3376 12.0922 56.7197L12.5823 56.9108C12.4598 57.051 12.2624 57.3885 11.9901 57.9236ZM11.888 55.9745C11.7247 55.9108 11.5137 55.8153 11.255 55.6879C11.01 55.5605 10.6288 55.2803 10.1115 54.8471C9.60775 54.414 9.26061 53.9554 9.07002 53.4713C9.41036 53.3312 9.73028 53.1401 10.0298 52.8981C10.3429 52.6433 10.5675 52.4331 10.7036 52.2675L10.9079 52C11.7383 52.1274 12.4462 52.3312 13.0316 52.6115L13.3379 52.7643C13.3107 52.9299 13.2698 53.1401 13.2154 53.3949C13.1745 53.6497 13.0248 54.0701 12.7661 54.6561C12.5211 55.2293 12.2284 55.6688 11.888 55.9745Z" fill="#EDF0F3"/>
<path d="M17.1437 55.0955C16.4767 56.1274 16.1431 57.293 16.1431 58.5924C16.1431 58.758 16.1499 59.0573 16.1636 59.4904C16.1908 59.9108 16.3133 60.4777 16.5311 61.1911C17.0212 60.5287 17.4296 59.7898 17.7564 58.9745C18.0831 58.1592 18.2873 57.5096 18.369 57.0255L18.4915 56.2994C18.8727 56.3376 19.3287 56.4777 19.8597 56.7197C20.3906 56.9618 20.7922 57.2293 21.0645 57.5223C21.0645 57.7134 21.01 58 20.9011 58.3822C20.8058 58.7643 20.6833 59.1146 20.5335 59.4331C20.3974 59.7389 20.1728 60.0955 19.8597 60.5032C19.5465 60.8981 19.179 61.2548 18.757 61.5732C18.3485 61.8917 17.804 62.1911 17.1233 62.4713C16.4563 62.7389 15.7075 62.9299 14.8771 63.0446C14.3461 62.5478 13.9241 61.9873 13.611 61.3631C13.3115 60.7389 13.1277 60.1656 13.0597 59.6433C12.9916 59.121 12.9576 58.7389 12.9576 58.4968C12.9576 57.7707 12.9984 57.2484 13.0801 56.9299L13.1618 56.5287C13.2707 56.4395 13.4204 56.3248 13.611 56.1847C13.8152 56.0318 14.2577 55.828 14.9383 55.5732C15.6326 55.3057 16.3678 55.1465 17.1437 55.0955Z" fill="#EDF0F3"/>
<path d="M24.0846 61.4013C24.2344 61.414 24.4658 61.4204 24.7789 61.4204C25.092 61.4204 25.5685 61.3503 26.2083 61.2102C26.8482 61.0573 27.3791 60.8917 27.8011 60.7134L28.4137 60.4268C28.441 60.5541 28.4546 60.6752 28.4546 60.7898C28.4546 61.2866 28.2231 61.7834 27.7603 62.2803C27.1613 62.9045 26.1607 63.3503 24.7585 63.6178C24.5543 63.5924 24.2888 63.5478 23.9621 63.4841C23.649 63.4204 23.1385 63.2229 22.4306 62.8917C21.7363 62.5732 21.2121 62.1847 20.8582 61.7261C20.9262 60.9108 21.11 60.0764 21.4095 59.2229C21.7226 58.3567 22.0153 57.7006 22.2876 57.2548L22.696 56.586C23.4584 56.5478 24.2139 56.4331 24.9627 56.242C25.7114 56.051 26.2628 55.8726 26.6167 55.707L27.1681 55.4395C27.6718 55.707 28.0666 56.0701 28.3525 56.5287C28.652 56.9873 28.8221 57.3758 28.863 57.6943L28.9447 58.1911C28.5635 58.9936 27.9236 59.6115 27.0251 60.0446C26.1266 60.4777 25.1873 60.7261 24.2071 60.7898C24.1663 60.9554 24.1254 61.1592 24.0846 61.4013ZM25.9429 58.9745C26.1198 58.7197 26.2083 58.5096 26.2083 58.3439C26.2083 58.1783 26.1471 58.051 26.0245 57.9618C25.9156 57.8599 25.7795 57.8089 25.6161 57.8089C25.4528 57.8089 25.2962 57.8217 25.1465 57.8471C25.0512 58.1656 24.8061 58.8599 24.4113 59.9299C25.0512 59.8408 25.5617 59.5223 25.9429 58.9745Z" fill="#EDF0F3"/>
<path d="M35.5057 52.9554C35.4104 54.293 35.3627 55.1783 35.3627 55.6115C35.3627 56.9108 35.3968 57.758 35.4648 58.1529L35.5465 58.6688L38.1603 52.3057C39.3039 52.9299 40.5972 53.3758 42.0402 53.6433C41.9858 54.7771 41.8156 56.051 41.5297 57.465C41.2438 58.879 40.9715 60.0064 40.7129 60.8471L40.3249 62.1083C39.6034 62.5541 38.4394 62.8854 36.833 63.1019C37.1325 62.121 37.3707 61.1783 37.5477 60.2739C37.7383 59.3694 37.854 58.7134 37.8949 58.3057L37.9357 57.6752C37.7996 57.9427 37.6158 58.2866 37.3844 58.707C37.1665 59.1274 36.7513 59.7834 36.1387 60.6752C35.5397 61.5541 35.002 62.1847 34.5255 62.5669C34.2668 62.0828 34.0422 61.4331 33.8516 60.6178C33.661 59.8025 33.5317 59.1083 33.4636 58.535L33.3615 57.6752C33.2799 57.828 33.1709 58.051 33.0348 58.3439C32.9123 58.6369 32.7421 59.3312 32.5243 60.4268C32.3201 61.5223 32.218 62.7134 32.218 64C32.0546 63.9236 31.8368 63.8153 31.5645 63.6752C31.3059 63.535 30.9179 63.2548 30.4006 62.8344C29.8833 62.414 29.5361 62 29.3591 61.5924C29.4817 60.2548 29.6859 58.9745 29.9717 57.7516C30.2576 56.5159 30.5163 55.6178 30.7477 55.0573L31.0745 54.1975C31.619 53.9172 32.3133 53.6561 33.1573 53.414C34.015 53.1592 34.7978 53.0064 35.5057 52.9554Z" fill="#EDF0F3"/>
<path d="M42.3285 62.051C42.274 61.4268 42.2468 60.879 42.2468 60.4076C42.2468 59.0955 42.3898 58.0382 42.6756 57.2357L42.9411 56.5669C43.1998 56.3631 43.6967 56.1783 44.4318 56.0127C45.1805 55.8471 45.9497 55.7643 46.7393 55.7643C46.6168 55.9682 46.4602 56.2548 46.2696 56.6242C46.079 56.9809 45.8544 57.6242 45.5958 58.5541C45.3507 59.4841 45.2282 60.3248 45.2282 61.0764C45.2282 61.2675 45.235 61.4522 45.2486 61.6306C45.3848 61.5924 45.5821 61.4395 45.8408 61.172C46.0995 60.8917 46.3241 60.5796 46.5147 60.2357C47.0592 59.3057 47.4949 58.051 47.8216 56.4713C48.8834 56.9172 49.9998 57.1401 51.1705 57.1401C50.7894 58.121 50.4762 59.1338 50.2312 60.1783C49.9862 61.2102 49.8364 62 49.7819 62.5478L49.7207 63.3694C49.3395 63.242 48.9175 62.9873 48.4546 62.6051C48.0054 62.2102 47.6718 61.7962 47.454 61.3631C47.386 61.4904 47.2294 61.6943 46.9844 61.9745C46.7393 62.242 46.5079 62.465 46.2901 62.6433C45.7047 63.1146 45.0921 63.4013 44.4522 63.5032L42.3285 62.051Z" fill="#EDF0F3"/>
<path d="M58.665 60.3121C58.665 61.051 58.1613 61.7006 57.1539 62.2611C56.1465 62.8217 54.6013 63.2038 52.5184 63.4076C51.8378 62.5159 51.3681 61.4713 51.1094 60.2739C51.1094 60.2739 51.2592 60.3057 51.5587 60.3694C52.5525 60.6115 53.3148 60.7325 53.8458 60.7325C54.3903 60.7325 54.826 60.7006 55.1527 60.6369C55.493 60.5605 55.7108 60.414 55.8061 60.1975C54.1997 60.0573 53.2672 59.9363 53.0085 59.8344C52.7635 59.7197 52.5457 59.6051 52.3551 59.4904C52.042 59.2994 51.8854 58.9618 51.8854 58.4777C51.8854 57.9936 52.0284 57.5478 52.3142 57.1401C52.6137 56.7325 52.9881 56.4076 53.4374 56.1656C53.9002 55.9236 54.4312 55.7197 55.0302 55.5541C56.0648 55.2866 57.1947 55.1529 58.4199 55.1529L58.91 58.4204C57.6712 58.1019 56.1056 57.9172 54.2133 57.8662C54.4039 58.3376 55.2071 58.6752 56.6229 58.879C57.1403 58.9427 57.6099 59.0955 58.032 59.3376C58.454 59.5669 58.665 59.8917 58.665 60.3121Z" fill="#EDF0F3"/>
<path d="M63.6793 57.9236C63.407 58.4586 63.1892 58.9682 63.0259 59.4522C62.8625 59.9236 62.7127 60.5159 62.5766 61.2293C62.4541 61.9299 62.3928 62.4713 62.3928 62.8535C62.3928 63.2229 62.3928 63.4395 62.3928 63.5032C61.7666 63.2357 61.2221 62.9618 60.7592 62.6815C60.2963 62.4013 59.9832 62.1847 59.8199 62.0318L59.5952 61.8025C59.5952 60.6433 59.6701 59.5669 59.8199 58.5732C59.9696 57.5796 60.1194 56.879 60.2691 56.4713L60.4937 55.8408C61.719 56.0446 62.8149 56.3376 63.7814 56.7197L64.2715 56.9108C64.149 57.051 63.9516 57.3885 63.6793 57.9236ZM63.5772 55.9745C63.4139 55.9108 63.2028 55.8153 62.9442 55.6879C62.6991 55.5605 62.318 55.2803 61.8006 54.8471C61.2969 54.414 60.9498 53.9554 60.7592 53.4713C61.0995 53.3312 61.4195 53.1401 61.719 52.8981C62.0321 52.6433 62.2567 52.4331 62.3928 52.2675L62.597 52C63.4275 52.1274 64.1354 52.3312 64.7208 52.6115L65.0271 52.7643C64.9998 52.9299 64.959 53.1401 64.9045 53.3949C64.8637 53.6497 64.714 54.0701 64.4553 54.6561C64.2103 55.2293 63.9176 55.6688 63.5772 55.9745Z" fill="#EDF0F3"/>
<path d="M71.2649 55.707L71.9796 55.3057C71.9932 55.535 72 55.8726 72 56.3185C72 57.3376 71.6597 58.3503 70.979 59.3567C69.9035 59.0764 68.9846 58.6624 68.2222 58.1147C67.7049 58.9427 67.4326 59.9873 67.4054 61.2484C67.7594 61.2484 68.7872 60.9809 70.4889 60.4459L71.3261 60.1783C71.3261 60.4076 71.2444 60.6943 71.0811 61.0382C70.9313 61.3694 70.7271 61.6688 70.4685 61.9363C70.2098 62.2038 69.7878 62.4904 69.2024 62.7962C68.617 63.0892 67.9227 63.3185 67.1195 63.4841C66.575 63.4076 65.9624 63.2038 65.2817 62.8726C64.601 62.5287 64.1177 62.1529 63.8318 61.7452C63.9271 60.9172 64.0905 60.1529 64.3219 59.4522C64.567 58.7389 64.8256 58.1656 65.0979 57.7325C65.6833 56.8535 66.1734 56.2803 66.5682 56.0127L66.8132 55.8217C67.6164 56.1147 68.406 56.2611 69.182 56.2611C69.958 56.2611 70.6523 56.0764 71.2649 55.707Z" fill="#EDF0F3"/>
<path d="M17.9252 32.1952V46.1837C17.9252 47.036 18.6351 47.7435 19.5214 47.7476C19.53 47.7476 19.5429 47.7476 19.5516 47.7476C20.4508 47.7476 21.1779 47.0484 21.1779 46.1837V32.1952C21.1779 31.3305 20.4508 30.6313 19.5516 30.6313C19.5429 30.6313 19.53 30.6313 19.5214 30.6313C18.6351 30.6355 17.9252 31.3429 17.9252 32.1952ZM50.8264 32.1952V46.4361C50.8264 47.3008 51.5535 48 52.4528 48C52.4614 48 52.4743 48 52.4829 48C53.3692 47.9959 54.0791 47.2884 54.0791 46.4361V32.1952C54.0791 31.3429 53.3692 30.6355 52.4829 30.6313C52.4743 30.6313 52.4614 30.6313 52.4528 30.6313C51.5535 30.6313 50.8264 31.3305 50.8264 32.1952ZM62 25.0004C62 11.0781 50.1638 -0.187943 35.6386 0.00237632C21.8792 0.184421 10.5421 10.8092 10.0215 24.0322C9.90964 26.8539 10.2883 29.5763 11.0756 32.1291C11.3424 32.9979 11.2864 33.9288 10.9164 34.7604C10.327 36.0802 10 37.5366 10 39.0633C10 42.2656 11.4327 45.1452 13.7131 47.1477C14.7801 48.0869 16.5011 47.3587 16.5011 45.9686V32.1539C16.5011 30.7679 14.793 30.0397 13.726 30.9747C13.7217 30.9789 13.7131 30.9747 13.7131 30.9706C13.2226 28.6702 13.1107 26.2374 13.4377 23.7385C14.7241 13.9329 22.8042 6.12982 33.0012 4.8762C46.9025 3.16746 58.7473 13.5357 58.7473 26.5684C58.7473 28.0827 58.5881 29.5597 58.2826 30.9871C57.2242 30.0314 55.4989 30.7803 55.4989 32.1663V45.9727C55.4989 47.3628 57.2156 48.091 58.2869 47.1518C60.5673 45.1535 62 42.2697 62 39.0674C62 37.7724 61.7634 36.5312 61.3331 35.3769C60.8598 34.1108 60.7695 32.7414 61.1266 31.4422C61.6945 29.3818 62 27.2263 62 25.0004Z" fill="#EDF0F3"/>
<path d="M26.5553 41.9097C27.4072 41.9097 28.0999 42.5758 28.0999 43.395V44.8803H25.0107V43.395C25.0107 42.5758 25.6991 41.9097 26.5553 41.9097Z" fill="#8954E0"/>
<path d="M26.5553 38.2771C27.4072 38.2771 28.0999 38.9432 28.0999 39.7624C28.0999 40.5816 27.4072 41.2477 26.5553 41.2477C25.7034 41.2477 25.0107 40.5816 25.0107 39.7624C25.0107 38.9432 25.6991 38.2771 26.5553 38.2771Z" fill="#5E62C1"/>
<path d="M26.5553 34.6445C27.4072 34.6445 28.0999 35.3106 28.0999 36.1298C28.0999 36.949 27.4072 37.6152 26.5553 37.6152C25.7034 37.6152 25.0107 36.949 25.0107 36.1298C25.0107 35.3106 25.6991 34.6445 26.5553 34.6445Z" fill="#5E62C1"/>
<path d="M30.3337 41.9097C31.1899 41.9097 31.8783 42.5758 31.8783 43.395V44.8803H28.7891V43.395C28.7891 42.5758 29.4775 41.9097 30.3337 41.9097Z" fill="#8954E0"/>
<path d="M30.3337 38.2771C31.1899 38.2771 31.8783 38.9432 31.8783 39.7624C31.8783 40.5816 31.1856 41.2477 30.3337 41.2477C29.4818 41.2477 28.7891 40.5816 28.7891 39.7624C28.7891 38.9432 29.4775 38.2771 30.3337 38.2771Z" fill="#8954E0"/>
<path d="M30.3337 34.6445C31.1899 34.6445 31.8783 35.3106 31.8783 36.1298C31.8783 36.949 31.1856 37.6152 30.3337 37.6152C29.4818 37.6152 28.7891 36.949 28.7891 36.1298C28.7891 35.3106 29.4775 34.6445 30.3337 34.6445Z" fill="#8954E0"/>
<path d="M30.3337 31.012C31.1899 31.012 31.8783 31.6781 31.8783 32.4973C31.8783 33.3165 31.1856 33.9826 30.3337 33.9826C29.4818 33.9826 28.7891 33.3165 28.7891 32.4973C28.7891 31.6781 29.4775 31.012 30.3337 31.012Z" fill="#5E62C1"/>
<path d="M30.3337 27.3794C31.1899 27.3794 31.8783 28.0455 31.8783 28.8647C31.8783 29.6839 31.1856 30.35 30.3337 30.35C29.4818 30.35 28.7891 29.6839 28.7891 28.8647C28.7891 28.0414 29.4775 27.3794 30.3337 27.3794Z" fill="#5E62C1"/>
<path d="M30.3337 23.7468C31.1899 23.7468 31.8783 24.4129 31.8783 25.2321C31.8783 26.0513 31.1856 26.7175 30.3337 26.7175C29.4818 26.7175 28.7891 26.0513 28.7891 25.2321C28.7891 24.4129 29.4775 23.7468 30.3337 23.7468Z" fill="#5E62C1"/>
<path d="M34.111 41.9097C34.9629 41.9097 35.6556 42.5758 35.6556 43.395V44.8803H32.5664V43.395C32.5664 42.5758 33.2591 41.9097 34.111 41.9097Z" fill="#8954E0"/>
<path d="M34.111 38.2771C34.9672 38.2771 35.6556 38.9432 35.6556 39.7624C35.6556 40.5816 34.9629 41.2477 34.111 41.2477C33.2591 41.2477 32.5664 40.5816 32.5664 39.7624C32.5664 38.9432 33.2548 38.2771 34.111 38.2771Z" fill="#5E62C1"/>
<path d="M37.8883 41.9097C38.7402 41.9097 39.4329 42.5758 39.4329 43.395V44.8803H36.3438V43.395C36.3438 42.5758 37.0365 41.9097 37.8883 41.9097Z" fill="#8954E0"/>
<path d="M37.8883 38.2771C38.7402 38.2771 39.4329 38.9432 39.4329 39.7624C39.4329 40.5816 38.7402 41.2477 37.8883 41.2477C37.0365 41.2477 36.3438 40.5816 36.3438 39.7624C36.3438 38.9432 37.0365 38.2771 37.8883 38.2771Z" fill="#8954E0"/>
<path d="M37.8883 34.6445C38.7402 34.6445 39.4329 35.3106 39.4329 36.1298C39.4329 36.949 38.7402 37.6152 37.8883 37.6152C37.0365 37.6152 36.3438 36.949 36.3438 36.1298C36.3438 35.3106 37.0365 34.6445 37.8883 34.6445Z" fill="#8954E0"/>
<path d="M37.8883 31.012C38.7402 31.012 39.4329 31.6781 39.4329 32.4973C39.4329 33.3165 38.7402 33.9826 37.8883 33.9826C37.0365 33.9826 36.3438 33.3165 36.3438 32.4973C36.3438 31.6781 37.0365 31.012 37.8883 31.012Z" fill="#5E62C1"/>
<path d="M37.8883 27.3794C38.7402 27.3794 39.4329 28.0455 39.4329 28.8647C39.4329 29.6839 38.7402 30.35 37.8883 30.35C37.0365 30.35 36.3438 29.6839 36.3438 28.8647C36.3438 28.0414 37.0365 27.3794 37.8883 27.3794Z" fill="#5E62C1"/>
<path d="M37.8883 23.7468C38.7402 23.7468 39.4329 24.4129 39.4329 25.2321C39.4329 26.0513 38.7402 26.7175 37.8883 26.7175C37.0365 26.7175 36.3438 26.0513 36.3438 25.2321C36.3438 24.4129 37.0365 23.7468 37.8883 23.7468Z" fill="#5E62C1"/>
<path d="M37.8883 20.114C38.7402 20.114 39.4329 20.7801 39.4329 21.5993C39.4329 22.4185 38.7402 23.0846 37.8883 23.0846C37.0365 23.0846 36.3438 22.4185 36.3438 21.5993C36.3438 20.7801 37.0365 20.114 37.8883 20.114Z" fill="#5E62C1"/>
<path d="M41.6667 41.9097C42.5186 41.9097 43.2113 42.5758 43.2113 43.395V44.8803H40.1221V43.395C40.1221 42.5758 40.8148 41.9097 41.6667 41.9097Z" fill="#8954E0"/>
<path d="M45.443 41.9097C46.2992 41.9097 46.9876 42.5758 46.9876 43.395V44.8803H43.8984V43.395C43.8984 42.5758 44.5868 41.9097 45.443 41.9097Z" fill="#8954E0"/>
<path d="M45.443 38.2771C46.2992 38.2771 46.9876 38.9432 46.9876 39.7624C46.9876 40.5816 46.2949 41.2477 45.443 41.2477C44.5911 41.2477 43.8984 40.5816 43.8984 39.7624C43.8984 38.9432 44.5868 38.2771 45.443 38.2771Z" fill="#8954E0"/>
<path d="M45.443 34.6445C46.2992 34.6445 46.9876 35.3106 46.9876 36.1298C46.9876 36.949 46.2949 37.6152 45.443 37.6152C44.5911 37.6152 43.8984 36.949 43.8984 36.1298C43.8984 35.3106 44.5868 34.6445 45.443 34.6445Z" fill="#5E62C1"/>
</svg>
